<svg width="20" height="20" viewBox="0 0 98 98" fill="none" xmlns="http://www.w3.org/2000/svg">
<path fill-rule="evenodd" clip-rule="evenodd" d="M18.6667 0C8.35735 0 0 8.35735 0 18.6667V79.3333C0 89.6426 8.35735 98 18.6667 98H79.3333C89.6426 98 98 89.6426 98 79.3333V18.6667C98 8.35735 89.6426 0 79.3333 0H18.6667ZM50.7471 44.9404C50.6989 44.7818 50.647 44.624 50.5915 44.4672L44.9034 28.4082L56.5595 28.408L71.1184 69.5128H59.4504L58.5773 67.0472C58.4052 66.4726 58.2047 65.9066 57.9765 65.351L50.7471 44.9404ZM40.1881 31.5607L45.5275 46.6352C45.8379 47.7286 45.8048 48.8943 45.4278 49.9727L45.2619 50.4475C44.5882 52.3745 42.7754 53.6679 40.7358 53.68C37.6193 53.609 34.5431 54.2841 31.7726 55.6327L40.1881 31.5607ZM40.1762 22.922H40.193L57.6601 22.922C58.4562 22.922 59.2408 23.1627 59.9038 23.6217C60.5673 24.0813 61.0805 24.7405 61.3557 25.5177L77.3184 70.5857C77.4986 71.0946 77.5513 71.6402 77.4713 72.1749C77.3905 72.7139 77.1786 73.216 76.8651 73.6423C76.5511 74.0693 76.1413 74.4122 75.6727 74.6464C75.2059 74.8796 74.6936 74.9988 74.1781 74.9988H58.3496C57.5537 74.9988 56.7691 74.7583 56.106 74.299C55.7902 74.0803 55.5084 73.8163 55.2702 73.5159C54.9852 73.2341 54.7577 72.8852 54.615 72.482L53.3434 68.8912C53.3271 68.8451 53.312 68.7987 53.2982 68.7518C53.1695 68.3155 53.0173 67.8859 52.8423 67.4647C52.0456 65.5472 50.7896 63.8388 49.1785 62.4795C47.1076 64.0511 45.5523 66.1732 44.7084 68.5871L43.3516 72.4673C43.0792 73.2466 42.5673 73.9102 41.9012 74.3736C41.2372 74.8354 40.4505 75.0778 39.6515 75.0778H23.8228C23.3079 75.0778 22.7967 74.959 22.3311 74.7269C21.8653 74.4947 21.4551 74.1541 21.1395 73.7267C20.8245 73.3002 20.6129 72.7994 20.531 72.2639C20.4484 71.7238 20.5027 71.1795 20.6782 70.6774L22.194 66.3415C22.2926 66.0596 22.3979 65.7805 22.5099 65.5044L36.4837 25.5333C36.7564 24.7532 37.2686 24.0908 37.931 23.6289C38.5935 23.1669 39.3786 22.9237 40.1762 22.922ZM48.7394 55.7035C48.6637 55.6667 48.5877 55.6304 48.5115 55.5946C48.5565 55.5426 48.601 55.49 48.645 55.4369L48.7394 55.7035ZM27.4236 68.0727C27.3847 68.1841 27.3393 68.2913 27.288 68.3942L26.8693 69.5918H38.5454L39.5298 66.7767C40.4611 64.1129 41.9907 61.7168 43.9773 59.7465C43.3281 59.5671 42.6638 59.4341 41.9895 59.3496C40.8 59.2004 39.5997 59.2044 38.4194 59.3583L38.3711 59.3647C38.3244 59.371 38.2778 59.3775 38.2311 59.3842C36.1549 59.6838 34.1706 60.4453 32.4394 61.6171C30.9376 62.6337 29.6783 63.9236 28.7224 65.3996C28.1888 66.2367 27.7523 67.1326 27.424 68.0716L27.4236 68.0727Z" fill="white"/>
</svg>
