<svg width="800" height="171" viewBox="0 0 800 171" fill="none" xmlns="http://www.w3.org/2000/svg">
<path d="M267.493 114.358H233.753L228.345 130.326H205.294L238.003 39.9248H263.501L296.21 130.326H272.901L267.493 114.358ZM261.827 97.3592L250.623 64.2636L239.548 97.3592H261.827ZM366.175 93.2384C366.175 95.2988 366.046 97.4451 365.789 99.6772H315.952C316.296 104.141 317.712 107.576 320.202 109.979C322.777 112.297 325.911 113.456 329.603 113.456C335.097 113.456 338.917 111.138 341.064 106.502H364.501C363.299 111.224 361.11 115.474 357.933 119.251C354.843 123.029 350.937 125.991 346.215 128.137C341.493 130.283 336.213 131.356 330.375 131.356C323.335 131.356 317.068 129.854 311.574 126.849C306.079 123.844 301.787 119.552 298.696 113.971C295.605 108.391 294.06 101.866 294.06 94.3974C294.06 86.9283 295.563 80.4036 298.567 74.8233C301.658 69.243 305.951 64.9504 311.445 61.9456C316.939 58.9408 323.25 57.4384 330.375 57.4384C337.329 57.4384 343.51 58.8979 348.919 61.8168C354.328 64.7358 358.534 68.8996 361.539 74.3082C364.63 79.7168 366.175 86.0269 366.175 93.2384ZM343.639 87.4434C343.639 83.666 342.351 80.6612 339.776 78.429C337.2 76.1969 333.981 75.0809 330.118 75.0809C326.426 75.0809 323.292 76.154 320.717 78.3003C318.227 80.4466 316.682 83.4943 316.081 87.4434H343.639ZM392.086 70.4449C394.662 66.4957 397.881 63.4051 401.745 61.173C405.608 58.855 409.901 57.696 414.622 57.696V81.0046H408.57C403.075 81.0046 398.954 82.2065 396.207 84.6103C393.46 86.9283 392.086 91.0492 392.086 96.9729V130.326H370.066V58.4687H392.086V70.4449ZM450.13 131.356C443.091 131.356 436.738 129.854 431.072 126.849C425.491 123.844 421.07 119.552 417.808 113.971C414.631 108.391 413.043 101.866 413.043 94.3974C413.043 87.0142 414.674 80.5324 417.936 74.9521C421.199 69.2859 425.663 64.9504 431.329 61.9456C436.995 58.9408 443.348 57.4384 450.388 57.4384C457.428 57.4384 463.781 58.9408 469.447 61.9456C475.113 64.9504 479.577 69.2859 482.84 74.9521C486.102 80.5324 487.733 87.0142 487.733 94.3974C487.733 101.781 486.059 108.305 482.711 113.971C479.449 119.552 474.941 123.844 469.189 126.849C463.523 129.854 457.17 131.356 450.13 131.356ZM450.13 112.297C454.337 112.297 457.9 110.752 460.819 107.661C463.824 104.571 465.326 100.149 465.326 94.3974C465.326 88.6453 463.867 84.224 460.948 81.1334C458.115 78.0427 454.595 76.4974 450.388 76.4974C446.095 76.4974 442.533 78.0427 439.7 81.1334C436.866 84.1382 435.45 88.5595 435.45 94.3974C435.45 100.149 436.824 104.571 439.571 107.661C442.404 110.752 445.924 112.297 450.13 112.297ZM513.71 68.642C515.856 65.2938 518.818 62.5895 522.596 60.5291C526.373 58.4686 530.794 57.4384 535.86 57.4384C541.783 57.4384 547.149 58.9408 551.957 61.9456C556.764 64.9504 560.542 69.243 563.289 74.8233C566.122 80.4036 567.539 86.8854 567.539 94.2686C567.539 101.652 566.122 108.176 563.289 113.843C560.542 119.423 556.764 123.758 551.957 126.849C547.149 129.854 541.783 131.356 535.86 131.356C530.88 131.356 526.459 130.326 522.596 128.266C518.818 126.205 515.856 123.544 513.71 120.281V164.581H491.689V58.4687H513.71V68.642ZM545.132 94.2686C545.132 88.7741 543.586 84.4816 540.496 81.3909C537.491 78.2144 533.756 76.6262 529.292 76.6262C524.914 76.6262 521.179 78.2144 518.088 81.3909C515.084 84.5674 513.581 88.9029 513.581 94.3974C513.581 99.8918 515.084 104.227 518.088 107.404C521.179 110.58 524.914 112.169 529.292 112.169C533.67 112.169 537.405 110.58 540.496 107.404C543.586 104.141 545.132 99.7631 545.132 94.2686ZM566.986 94.2686C566.986 86.8854 568.36 80.4036 571.107 74.8233C573.94 69.243 577.761 64.9504 582.568 61.9456C587.376 58.9408 592.742 57.4384 598.665 57.4384C603.731 57.4384 608.152 58.4686 611.929 60.5291C615.793 62.5895 618.755 65.2938 620.815 68.642V58.4687H642.836V130.326H620.815V120.153C618.669 123.501 615.664 126.205 611.801 128.266C608.023 130.326 603.602 131.356 598.537 131.356C592.699 131.356 587.376 129.854 582.568 126.849C577.761 123.758 573.94 119.423 571.107 113.843C568.36 108.176 566.986 101.652 566.986 94.2686ZM620.815 94.3974C620.815 88.9029 619.27 84.5674 616.179 81.3909C613.174 78.2144 609.483 76.6262 605.104 76.6262C600.726 76.6262 596.991 78.2144 593.901 81.3909C590.896 84.4816 589.393 88.7741 589.393 94.2686C589.393 99.7631 590.896 104.141 593.901 107.404C596.991 110.58 600.726 112.169 605.104 112.169C609.483 112.169 613.174 110.58 616.179 107.404C619.27 104.227 620.815 99.8918 620.815 94.3974ZM678.341 57.4384C683.406 57.4384 687.828 58.4686 691.605 60.5291C695.468 62.5895 698.43 65.2938 700.491 68.642V58.4687H722.511V130.197C722.511 136.808 721.181 142.775 718.519 148.097C715.944 153.506 711.952 157.798 706.543 160.975C701.22 164.151 694.567 165.74 686.583 165.74C675.937 165.74 667.309 163.207 660.699 158.142C654.088 153.162 650.311 146.38 649.366 137.795H671.13C671.816 140.542 673.447 142.689 676.023 144.234C678.599 145.865 681.775 146.681 685.553 146.681C690.103 146.681 693.708 145.35 696.37 142.689C699.117 140.113 700.491 135.949 700.491 130.197V120.024C698.344 123.372 695.382 126.119 691.605 128.266C687.828 130.326 683.406 131.356 678.341 131.356C672.417 131.356 667.052 129.854 662.244 126.849C657.436 123.758 653.616 119.423 650.783 113.843C648.036 108.176 646.662 101.652 646.662 94.2686C646.662 86.8854 648.036 80.4036 650.783 74.8233C653.616 69.243 657.436 64.9504 662.244 61.9456C667.052 58.9408 672.417 57.4384 678.341 57.4384ZM700.491 94.3974C700.491 88.9029 698.945 84.5674 695.855 81.3909C692.85 78.2144 689.158 76.6262 684.78 76.6262C680.401 76.6262 676.667 78.2144 673.576 81.3909C670.571 84.4816 669.069 88.7741 669.069 94.2686C669.069 99.7631 670.571 104.141 673.576 107.404C676.667 110.58 680.401 112.169 684.78 112.169C689.158 112.169 692.85 110.58 695.855 107.404C698.945 104.227 700.491 99.8918 700.491 94.3974ZM798.452 93.2384C798.452 95.2988 798.324 97.4451 798.066 99.6772H748.23C748.573 104.141 749.989 107.576 752.479 109.979C755.055 112.297 758.188 113.456 761.88 113.456C767.374 113.456 771.195 111.138 773.341 106.502H796.778C795.576 111.224 793.387 115.474 790.211 119.251C787.12 123.029 783.214 125.991 778.492 128.137C773.77 130.283 768.49 131.356 762.653 131.356C755.613 131.356 749.346 129.854 743.851 126.849C738.357 123.844 734.064 119.552 730.973 113.971C727.883 108.391 726.337 101.866 726.337 94.3974C726.337 86.9283 727.84 80.4036 730.845 74.8233C733.935 69.243 738.228 64.9504 743.722 61.9456C749.217 58.9408 755.527 57.4384 762.653 57.4384C769.606 57.4384 775.788 58.8979 781.196 61.8168C786.605 64.7358 790.812 68.8996 793.817 74.3082C796.907 79.7168 798.452 86.0269 798.452 93.2384ZM775.917 87.4434C775.917 83.666 774.629 80.6612 772.053 78.429C769.478 76.1969 766.258 75.0809 762.395 75.0809C758.703 75.0809 755.57 76.154 752.994 78.3003C750.505 80.4466 748.959 83.4943 748.358 87.4434H775.917Z" fill="black"/>
<path d="M71.9381 101.413C71.3702 101.471 70.7954 101.501 70.2155 101.501C70.187 101.501 70.1586 101.5 70.1301 101.5C64.6545 101.364 59.2865 102.932 54.8115 105.962C50.3397 108.99 47.0004 113.311 45.2609 118.284L45.2587 118.29C45.131 118.655 44.948 118.985 44.7223 119.274L43.5771 122.55H67.3614L69.4465 116.587C71.292 111.307 74.5228 106.642 78.7613 103.021C76.8026 102.271 74.748 101.756 72.6426 101.492C72.408 101.462 72.1731 101.436 71.9381 101.413Z" fill="#252525"/>
<path d="M72.2036 94.4192C72.1338 94.4149 72.0634 94.4128 71.9926 94.4128H70.1363C68.6373 94.3776 67.1439 94.4437 65.6662 94.6084L65.5547 94.621C65.4912 94.6283 65.4278 94.6357 65.3644 94.6434C63.1736 94.9077 61.0089 95.3898 58.905 96.0867C56.4247 96.9082 54.0623 98.017 51.8669 99.3849L69.2724 49.5909L80.2306 80.5331C80.7858 82.6835 80.6949 84.9583 79.9572 87.0688L79.6623 87.9127C78.4819 91.2896 75.6154 93.7284 72.2036 94.4192Z" fill="#252525"/>
<path d="M81.8597 96.845C83.6167 97.5597 85.3125 98.4264 86.926 99.4387L84.7322 93.2443C83.9369 94.5824 82.9675 95.7911 81.8597 96.845Z" fill="#252525"/>
<path d="M86.8062 78.4862L99.479 114.27C99.6581 114.707 99.8272 115.147 99.9861 115.591C100.209 116.196 100.412 116.808 100.597 117.426L102.498 122.796H126.273L99.387 46.8788L75.6584 46.8791L86.4285 77.2901C86.5685 77.6854 86.6944 78.0843 86.8062 78.4862Z" fill="#252525"/>
<path fill-rule="evenodd" clip-rule="evenodd" d="M25.5 0C11.4167 0 0 11.4183 0 25.5035V144.52C0 158.605 11.4167 170.023 25.5 170.023H144.5C158.583 170.023 170 158.605 170 144.52V25.5035C170 11.4183 158.583 0 144.5 0H25.5ZM39.9206 112.706L64.0642 43.6354C64.4473 42.5392 65.1678 41.606 66.1026 40.9541C67.0376 40.3021 68.147 39.9578 69.2754 39.9554C69.5063 39.955 69.7363 39.9688 69.9643 39.9966L100.33 39.9962C101.456 39.9962 102.565 40.3368 103.501 40.9848C104.437 41.6334 105.159 42.5623 105.546 43.6542L133.91 123.748C134.152 124.431 134.223 125.164 134.116 125.881C134.007 126.604 133.723 127.279 133.301 127.852C132.879 128.427 132.328 128.888 131.696 129.204C131.068 129.518 130.377 129.679 129.681 129.679H101.555C100.429 129.679 99.3202 129.338 98.3844 128.69C97.448 128.042 96.7262 127.113 96.3395 126.021L94.0799 119.639C94.0742 119.623 94.0687 119.607 94.0632 119.591C94.0579 119.575 94.0528 119.559 94.0477 119.544C94.0048 119.438 93.9667 119.329 93.9338 119.218C93.8069 118.788 93.668 118.361 93.5172 117.938C93.405 117.634 93.2865 117.332 93.162 117.032C93.1385 116.976 93.1165 116.919 93.096 116.861L93.0522 116.737C91.4033 112.793 88.7276 109.325 85.2851 106.673C80.9303 109.685 77.6593 113.947 75.9425 118.858L73.5316 125.754C73.1487 126.849 72.4285 127.784 71.4889 128.438C70.5518 129.089 69.4401 129.433 68.3097 129.433H40.1831C39.4887 129.432 38.7994 129.272 38.1719 128.959C37.5442 128.646 36.9923 128.188 36.5681 127.613C36.1447 127.04 35.8607 126.367 35.7508 125.649C35.64 124.924 35.7126 124.194 35.9484 123.519L38.642 115.813C39.013 114.752 39.4401 113.715 39.9206 112.706Z" fill="#252525"/>
</svg>
