<svg width="98" height="99" viewBox="0 0 98 99" fill="none" xmlns="http://www.w3.org/2000/svg">
<path fill-rule="evenodd" clip-rule="evenodd" d="M18.6667 0.530579C8.35735 0.530579 0 8.88793 0 19.1972V79.8639C0 90.1732 8.35735 98.5306 18.6667 98.5306H79.3333C89.6426 98.5306 98 90.1732 98 79.8639V19.1972C98 8.88793 89.6426 0.530579 79.3333 0.530579H18.6667ZM50.7471 45.4709C50.6989 45.3123 50.647 45.1546 50.5915 44.9978L44.9034 28.9387L56.5595 28.9386L71.1184 70.0434H59.4504L58.5773 67.5778C58.4052 67.0032 58.2047 66.4372 57.9765 65.8816L50.7471 45.4709ZM40.1881 32.0913L45.5275 47.1657C45.8379 48.2591 45.8048 49.4249 45.4278 50.5033L45.2618 50.9781C44.5882 52.9051 42.7754 54.1985 40.7358 54.2106C37.6193 54.1395 34.5431 54.8147 31.7726 56.1633L40.1881 32.0913ZM40.1762 23.4526H40.193L57.6601 23.4526C58.4562 23.4525 59.2408 23.6932 59.9038 24.1523C60.5673 24.6118 61.0805 25.2711 61.3557 26.0482L77.3184 71.1163C77.4986 71.6252 77.5513 72.1708 77.4713 72.7055C77.3905 73.2445 77.1786 73.7466 76.8651 74.1729C76.5511 74.5999 76.1413 74.9428 75.6727 75.1769C75.2059 75.4102 74.6936 75.5294 74.1781 75.5294H58.3496C57.5537 75.5294 56.7691 75.2889 56.106 74.8296C55.7902 74.6109 55.5084 74.3469 55.2702 74.0465C54.9852 73.7647 54.7577 73.4157 54.615 73.0125L53.3434 69.4217C53.3271 69.3757 53.312 69.3292 53.2982 69.2824C53.1695 68.8461 53.0173 68.4165 52.8423 67.9953C52.0456 66.0778 50.7896 64.3694 49.1785 63.0101C47.1076 64.5817 45.5523 66.7037 44.7084 69.1177L43.3516 72.9979C43.0792 73.7771 42.5674 74.4408 41.9012 74.9041C41.2372 75.366 40.4505 75.6084 39.6515 75.6084H23.8228C23.3079 75.6084 22.7967 75.4895 22.3311 75.2574C21.8653 75.0253 21.4551 74.6847 21.1395 74.2573C20.8245 73.8308 20.6129 73.33 20.531 72.7945C20.4484 72.2544 20.5027 71.7101 20.6782 71.208L22.194 66.872C22.2926 66.5902 22.3979 66.3111 22.5099 66.035L36.4837 26.0639C36.7564 25.2838 37.2686 24.6214 37.931 24.1595C38.5935 23.6975 39.3786 23.4543 40.1762 23.4526ZM48.7394 56.2341C48.6637 56.1973 48.5877 56.161 48.5115 56.1252C48.5565 56.0731 48.601 56.0206 48.645 55.9675L48.7394 56.2341ZM27.4236 68.6033C27.3847 68.7147 27.3393 68.8219 27.288 68.9248L26.8693 70.1224H38.5454L39.5298 67.3073C40.4611 64.6434 41.9907 62.2474 43.9773 60.2771C43.3281 60.0977 42.6638 59.9647 41.9895 59.8801C40.8 59.7309 39.5997 59.735 38.4194 59.8889C38.4084 59.8903 38.3975 59.8918 38.3866 59.8932C38.366 59.896 38.3454 59.8988 38.3248 59.9016C38.2935 59.9059 38.2623 59.9103 38.2311 59.9148C36.1549 60.2144 34.1706 60.9758 32.4394 62.1477C30.9376 63.1643 29.6783 64.4541 28.7224 65.9302C28.1888 66.7672 27.7523 67.6632 27.424 68.6022L27.4236 68.6033Z" fill="black"/>
</svg>
